<svg width="17" height="17" viewBox="0 0 17 17" fill="none" xmlns="http://www.w3.org/2000/svg">
<g clip-path="url(#clip0_651_301)">
<path fill-rule="evenodd" clip-rule="evenodd" d="M16.5 4.5H0.5V3.75C0.5 3.06 0.948 2.5 1.5 2.5H15.5C16.052 2.5 16.5 3.06 16.5 3.75V4.5ZM16.5 7V13.5C16.5 13.7652 16.3946 14.0196 16.2071 14.2071C16.0196 14.3946 15.7652 14.5 15.5 14.5H1.5C1.23478 14.5 0.98043 14.3946 0.792893 14.2071C0.605357 14.0196 0.5 13.7652 0.5 13.5V7H16.5ZM4.5 10.5C4.23478 10.5 3.98043 10.6054 3.79289 10.7929C3.60536 10.9804 3.5 11.2348 3.5 11.5C3.5 11.7652 3.60536 12.0196 3.79289 12.2071C3.98043 12.3946 4.23478 12.5 4.5 12.5H5.5C5.76522 12.5 6.01957 12.3946 6.20711 12.2071C6.39464 12.0196 6.5 11.7652 6.5 11.5C6.5 11.2348 6.39464 10.9804 6.20711 10.7929C6.01957 10.6054 5.76522 10.5 5.5 10.5H4.5Z" fill="#727F96"/>
</g>
<defs>
<clipPath id="clip0_651_301">
<rect width="16" height="16" fill="white" transform="translate(0.5 0.5)"/>
</clipPath>
</defs>
</svg>
