<svg width="17" height="17" viewBox="0 0 17 17" fill="none" xmlns="http://www.w3.org/2000/svg">
<g clip-path="url(#clip0_651_995)">
<path d="M15.0921 8.77109C15.8671 8.78709 16.5001 9.71909 16.5001 10.8441C16.5001 11.9701 15.8671 12.9171 15.0921 12.9331H10.8862C11.4121 12.6181 11.6709 11.9891 11.9366 11.2541H15.0719C15.2368 11.2541 15.3711 11.0791 15.3711 10.8421C15.3711 10.7858 15.3633 10.73 15.3483 10.678C15.3332 10.626 15.3111 10.5788 15.2833 10.5391C15.2555 10.4994 15.2225 10.468 15.1863 10.4467C15.15 10.4254 15.1111 10.4147 15.0719 10.4151H13.6104C13.2307 10.413 12.867 10.1945 12.5992 9.80761C12.3313 9.42071 12.1811 8.89693 12.1815 8.35109C12.1815 7.21609 12.8222 6.28809 13.6097 6.28809H15.8664V7.89709H13.6104C13.5298 7.90074 13.4534 7.94953 13.3975 8.03305C13.3416 8.11657 13.3107 8.2282 13.3112 8.34409C13.3112 8.58109 13.4448 8.77109 13.6104 8.77109H15.0921ZM9.41002 6.28809C10.6664 6.28809 11.6834 7.77009 11.6834 9.59809C11.6834 11.4251 10.6643 12.9331 9.40794 12.9331H8.26776V16.5001H7.13037V9.60309C7.13037 7.77609 8.15368 6.28809 9.41002 6.28809ZM9.41002 11.2541C10.0424 11.2541 10.5565 10.5241 10.5565 9.59809C10.5565 8.67209 10.0424 7.91809 9.41002 7.91809C8.77768 7.91809 8.26776 8.67209 8.26776 9.59809V11.2541H9.41002Z" fill="#727F96"/>
<path d="M3.52957 12.933H6.53617C6.49954 13.2276 6.39188 13.4942 6.2321 13.6861C6.07231 13.8779 5.87062 13.9827 5.66244 13.982H1.38765C0.899304 13.982 0.5 13.387 0.5 12.682V6.504C0.5 5.8 0.899304 5.24 1.38765 5.24H5.66244C6.15009 5.24 6.55009 5.817 6.55009 6.523L6.54591 11.255H3.52957C3.06765 11.255 2.66696 10.94 2.4687 10.381H5.82383V9.578C5.82272 8.70167 5.58021 7.86164 5.14934 7.2417C4.71846 6.62176 4.13432 6.27238 3.5247 6.27C3.01185 6.27281 2.51441 6.52224 2.11162 6.97857C1.70883 7.4349 1.42385 8.07186 1.30209 8.788C1.30209 8.788 1.23461 9.271 1.23461 9.586C1.23461 9.901 1.30557 10.379 1.30557 10.379C1.55043 11.826 2.45409 12.934 3.52957 12.934V12.933ZM3.5247 7.839C3.98522 7.839 4.38522 8.246 4.58417 8.771H2.46522C2.66417 8.246 3.06487 7.839 3.5247 7.839ZM5.4607 3.229V3.994C5.4607 4.093 5.40087 4.19 5.3313 4.19H4.61896C4.54939 4.19 4.49304 4.093 4.49304 3.994V3.23C4.49304 2.477 4.05896 1.864 3.5247 1.864C2.99113 1.864 2.55704 2.477 2.55704 3.23V3.994C2.55704 4.093 2.49583 4.19 2.42626 4.19H1.71391C1.64435 4.19 1.5887 4.093 1.5887 3.994V3.155C1.61722 1.682 2.47287 0.5 3.52539 0.5C4.59391 0.5 5.46 1.722 5.46 3.23L5.4607 3.229Z" fill="#A41760"/>
</g>
<defs>
<clipPath id="clip0_651_995">
<rect width="16" height="16" fill="white" transform="translate(0.5 0.5)"/>
</clipPath>
</defs>
</svg>
