<svg width="17" height="17" viewBox="0 0 17 17" fill="none" xmlns="http://www.w3.org/2000/svg">
<g clip-path="url(#clip0_651_1000)">
<path d="M0.5 4.012C0.5 2.625 1.32618 1.5 2.34364 1.5H14.6564C15.6738 1.5 16.5 2.625 16.5 4.012V12.988C16.499 13.3194 16.4504 13.6473 16.3572 13.9529C16.264 14.2585 16.1279 14.5359 15.9567 14.7692C15.7855 15.0024 15.5825 15.1871 15.3594 15.3125C15.1363 15.4378 14.8974 15.5016 14.6564 15.5H2.34364C1.32545 15.5 0.5 14.375 0.5 12.988V4.012ZM1.22727 12.972C1.22727 13.852 1.70218 14.5 2.34655 14.5H8.48909V2.5H2.34655C1.70218 2.5 1.22727 3.147 1.22727 4.028V12.972ZM10.3458 12.875H11.8607V9.542H11.8775C12.164 10.272 12.7371 10.543 13.2665 10.543C14.5713 10.543 15.2687 9.036 15.2687 7.223C15.2687 5.739 14.6047 4.125 13.3924 4.125C12.7022 4.125 12.0636 4.515 11.7596 5.374H11.7422V4.268H10.3458V12.875ZM13.7036 7.27C13.7036 8.247 13.3589 8.919 12.7865 8.919C12.2818 8.919 11.8607 8.247 11.8607 7.352C11.8607 6.434 12.2302 5.75 12.7865 5.75C13.3764 5.75 13.7044 6.458 13.7044 7.27H13.7036Z" fill="#727F96"/>
<path d="M7.26862 4.265V9.595C7.26862 12.075 6.38207 12.875 4.59007 12.875C4.01275 12.8773 3.43914 12.7478 2.89262 12.492L2.96971 10.846C3.43807 11.159 3.8308 11.344 4.47153 11.344C5.35807 11.344 5.83589 10.777 5.83589 9.594V9.27H5.81844C5.45189 9.977 4.93989 10.302 4.32462 10.302C3.10571 10.302 2.34644 9.051 2.34644 7.266C2.34644 5.47 2.96971 4.125 4.3508 4.125C5.00753 4.125 5.53625 4.612 5.86207 5.355H5.87807V4.265H7.26862ZM3.93262 7.232C3.93262 8.17 4.3428 8.702 4.80316 8.702C5.34862 8.702 5.78498 8.077 5.78498 7.15C5.78498 6.478 5.49407 5.725 4.80316 5.725C4.23153 5.725 3.93262 6.409 3.93262 7.232Z" fill="#EE3525"/>
</g>
<defs>
<clipPath id="clip0_651_1000">
<rect width="16" height="16" fill="white" transform="translate(0.5 0.5)"/>
</clipPath>
</defs>
</svg>
